<svg xmlns="http://www.w3.org/2000/svg" version="1.1" xmlns:xlink="http://www.w3.org/1999/xlink" width="200" height="200"><svg xmlns="http://www.w3.org/2000/svg" version="1.1" xmlns:xlink="http://www.w3.org/1999/xlink" viewBox="0 0 200 200"><rect width="200" height="200" fill="url('#gradient')"></rect><defs><linearGradient id="SvgjsLinearGradient1001" gradientTransform="rotate(172 0.5 0.5)"><stop offset="0%" stop-color="#76ba96"></stop><stop offset="100%" stop-color="#79b4ca"></stop></linearGradient></defs><g><g fill="#fd8e88" transform="matrix(2.638616307800918,0,0,2.638616307800918,26.076584472691593,119.52810380264428)" stroke="#ee304f" stroke-width="1"><path d="M6.74-4.46L6.74-14.22L10.16-14.22L10.16-4.46Q10.16-3.11 9.53-2.04Q8.90-0.98 7.77-0.39Q6.64 0.20 5.25 0.20L5.25 0.20Q2.93 0.20 1.64-0.98Q0.35-2.15 0.35-4.30L0.35-4.30L3.79-4.30Q3.79-3.32 4.13-2.88Q4.46-2.44 5.25-2.44L5.25-2.44Q5.97-2.44 6.35-2.97Q6.74-3.51 6.74-4.46L6.74-4.46ZM11.76-4.82L11.75-5.38Q11.75-6.96 12.36-8.20Q12.98-9.43 14.13-10.10Q15.28-10.76 16.84-10.76L16.84-10.76Q19.21-10.76 20.58-9.29Q21.94-7.82 21.94-5.29L21.94-5.29L21.94-5.18Q21.94-2.71 20.57-1.25Q19.20 0.20 16.86 0.20L16.86 0.20Q14.60 0.20 13.23-1.16Q11.87-2.51 11.76-4.82L11.76-4.82ZM15.05-5.77L15.04-5.18Q15.04-3.71 15.50-3.03Q15.96-2.34 16.86-2.34L16.86-2.34Q18.61-2.34 18.65-5.05L18.65-5.05L18.65-5.38Q18.65-8.22 16.84-8.22L16.84-8.22Q15.19-8.22 15.05-5.77L15.05-5.77ZM23.42-10.57L26.50-10.57L26.61-9.33Q27.73-10.76 29.63-10.76L29.63-10.76Q31.63-10.76 32.33-9.17L32.33-9.17Q33.41-10.76 35.44-10.76L35.44-10.76Q38.65-10.76 38.74-6.88L38.74-6.88L38.74 0L35.44 0L35.44-6.67Q35.44-7.48 35.17-7.85Q34.89-8.22 34.17-8.22L34.17-8.22Q33.19-8.22 32.71-7.35L32.71-7.35L32.72-7.22L32.72 0L29.42 0L29.42-6.65Q29.42-7.48 29.16-7.85Q28.90-8.22 28.15-8.22L28.15-8.22Q27.21-8.22 26.71-7.35L26.71-7.35L26.71 0L23.42 0L23.42-10.57ZM44.09-15L44.09 0L40.79 0L40.79-15L44.09-15ZM51.23 0.20L51.23 0.20Q48.80 0.20 47.29-1.25Q45.79-2.71 45.79-5.03L45.79-5.03L45.79-5.30Q45.79-6.92 46.39-8.16Q46.99-9.40 48.14-10.08Q49.30-10.76 50.88-10.76L50.88-10.76Q53.11-10.76 54.39-9.38Q55.68-8.00 55.68-5.53L55.68-5.53L55.68-4.25L49.14-4.25Q49.32-3.36 49.91-2.85Q50.51-2.34 51.46-2.34L51.46-2.34Q53.02-2.34 53.90-3.44L53.90-3.44L55.40-1.66Q54.79-0.81 53.66-0.31Q52.53 0.20 51.23 0.20ZM50.86-8.22L50.86-8.22Q49.41-8.22 49.14-6.31L49.14-6.31L52.46-6.31L52.46-6.56Q52.48-7.35 52.06-7.79Q51.64-8.22 50.86-8.22Z"></path></g></g></svg><style>@media (prefers-color-scheme: light) { :root { filter: none; } }
@media (prefers-color-scheme: dark) { :root { filter: none; } }
</style></svg>